<svg version="1.2" xmlns="http://www.w3.org/2000/svg" viewBox="0 0 1640 664" width="1200" height="486">
	<title>LIUGAME</title>
	<style>
		tspan { white-space:pre } 
		.s0 { fill: #9980d3 } 
		.s1 { fill: #271949 } 
		.t2 { font-size: 102px;fill: #ffffff;font-weight: 700;font-family: "OfficeCodeProD-Bold", "Office Code Pro D" } 
	</style>
	<path id="Background" class="s0" d="m0 0h1640v664h-1640z"/>
	<g id="skull">
		<path id="Layer" fill-rule="evenodd" class="s1" d="m621.3 160.8c3.9 9.6 3.9 19.1 3.9 26.7l41.8 24.7c24.8-62.8 85.7-104.6 154.2-104.6 70.4 0 129.4 41.8 154.1 100.8l38.1-20.9c0-9.5 1.9-17.1 3.8-26.7 9.5-34.2 34.2-58.9 55.2-53.2 19 3.8 28.5 38 19 72.3 0 1.9-1.9 1.9-1.9 3.8 1.9 0 1.9 0 3.8 0 34.2 9.5 59 34.2 53.3 53.3-5.7 20.9-38.1 28.5-74.2 19-9.6-1.9-17.2-5.7-24.8-9.5l-59 34.2c-1.9 34.3-13.3 64.7-32.3 89.5l66.6 38c7.6-3.8 15.2-7.6 24.7-9.5 36.2-9.5 68.5 0 74.2 19 5.7 21-19 43.8-55.2 53.3 0 1.9-1.9 1.9-1.9 1.9v1.9c9.6 36.2 1.9 68.5-19 74.3-19 5.7-43.8-19.1-53.3-55.2-1.9-9.5-3.8-17.2-3.8-26.7l-45.6-26.6c-1.9 66.6-55.2 118-121.8 118-66.6 0-119.9-53.3-121.8-118l-47.6 28.5c-1.9 7.6-1.9 15.3-3.8 24.8-9.5 36.1-34.3 60.9-55.2 55.2-19-5.8-28.5-40-19-74.3 0-1.9 0-1.9 1.9-1.9-1.9-1.9-1.9-1.9-3.8-1.9-34.3-9.5-59-32.3-53.3-53.3 5.7-20.9 38-28.5 74.2-19 7.6 1.9 17.1 5.7 24.7 9.5l68.5-39.9c-17.1-22.9-28.5-53.3-30.4-83.8l-64.7-38c-7.6 3.8-15.2 7.6-24.7 9.5-34.3 9.5-68.5 1.9-74.3-19-3.8-19.1 19.1-43.8 55.2-53.3h1.9c0-1.9 0-1.9 0-3.8-9.5-34.3-1.9-68.5 19.1-74.2 20.9-3.8 43.7 19 53.2 55.1zm127.5 55.2c-34.2 0-60.8 26.7-60.8 59 0 34.3 26.6 60.9 60.8 60.9 32.4 0 59-26.6 59-60.9 0-32.3-26.6-59-59-59zm146.6 0c-34.3 0-60.9 26.7-60.9 59 0 34.3 26.6 60.9 60.9 60.9 32.3 0 59-26.6 59-60.9 0-32.3-26.7-59-59-59zm-108.5 169.4h66.6l-34.2-47.6z"/>
	</g>
	<text id="LIUGAME" style="transform: matrix(1,0,0,1,594.5,365);paint-order:stroke fill markers;stroke: #000000;stroke-width: 6;stroke-linejoin: round;" >
		<tspan x="0" y="0" class="t2">L</tspan><tspan  y="0" class="t2">I</tspan><tspan  y="0" class="t2">U</tspan><tspan  y="0" class="t2">G</tspan><tspan  y="0" class="t2">A</tspan><tspan  y="0" class="t2">M</tspan><tspan  y="0" class="t2">E</tspan><tspan  y="0" class="t2">
</tspan>
	</text>
	<text id="" style="transform: matrix(1,0,0,1,-39,93)" >
	</text>
</svg>